<svg width="32" height="32" viewBox="0 0 32 32" fill="none" xmlns="http://www.w3.org/2000/svg">
  <circle cx="16" cy="16" r="16" fill="url(#gradient)"/>
  <path d="M10 12C10 10.8954 10.8954 10 12 10H14C15.1046 10 16 10.8954 16 12V14C16 15.1046 15.1046 16 14 16H12C10.8954 16 10 15.1046 10 14V12Z" fill="white"/>
  <path d="M18 12C18 10.8954 18.8954 10 20 10H22C23.1046 10 24 10.8954 24 12V14C24 15.1046 23.1046 16 22 16H20C18.8954 16 18 15.1046 18 14V12Z" fill="white" fill-opacity="0.7"/>
  <path d="M8 20C8 18.3431 9.34315 17 11 17H21C22.6569 17 24 18.3431 24 20V21C24 22.6569 22.6569 24 21 24H11C9.34315 24 8 22.6569 8 21V20Z" fill="white"/>
  <defs>
    <linearGradient id="gradient" x1="0" y1="0" x2="32" y2="32" gradientUnits="userSpaceOnUse">
      <stop stop-color="#6366F1"/>
      <stop offset="1" stop-color="#EC4899"/>
    </linearGradient>
  </defs>
</svg>
